
      <svg data-logo="logo" xmlns="http://www.w3.org/2000/svg" viewBox="0 0 237 46">
        <g id="logogram" transform="translate(0, 3) rotate(0) "><path fill-rule="evenodd" clip-rule="evenodd" d="M24.6625 0C29.5499 0.000157557 33.512 3.87456 33.5121 8.65224C33.5121 8.91866 33.4997 9.18398 33.4824 9.44828H40.9366C48.1871 9.44828 51.0342 18.6407 45.0014 22.5723L37.1131 27.7122C35.415 28.8193 35.8805 31.3743 37.8654 31.84C38.5143 31.9921 39.1997 31.8658 39.7475 31.4934L44.3242 28.1927C44.4979 28.0675 44.7074 28 44.9225 28H57.4922C57.9872 28 58.1886 28.6281 57.7838 28.909L44.4783 38.1397C41.99 39.8319 38.8796 40.4048 35.9321 39.7133C26.9186 37.5986 24.8061 26.0015 32.5185 20.9749L37.7818 17.5457H29.7048H24.5358C23.0515 17.5457 21.6504 17.1926 20.4171 16.5691C21.7314 17.4535 24.9805 18.4377 27.7216 18.6251C27.9658 18.6251 28.3625 18.8385 27.8901 19.3183L11.2952 35.7067C11.105 35.8945 10.847 36 10.578 36H0.507884C0.056246 36 -0.169872 35.4613 0.149574 35.1463L19.5219 16.0472C17.1349 14.4709 15.5652 11.8013 15.5649 8.77349C15.5649 3.92875 19.5825 0 24.5385 0H24.6625ZM24.8419 6.74915C23.6982 6.74915 22.771 7.35337 22.771 8.09871C22.7715 8.71319 23.4024 9.23009 24.2648 9.39292C24.3487 9.42847 24.4413 9.44828 24.5385 9.44828H25.1533C25.1544 9.44225 25.1535 9.43586 25.1546 9.42983C26.1495 9.33152 26.9122 8.77441 26.9127 8.09871C26.9127 7.35337 25.9855 6.74915 24.8419 6.74915Z" fill="#002A3D"/></g>
        <g id="logotype" transform="translate(64, 1)"><path fill="#111111" d="M13.42 35L8.24 35L8.24 15.01Q8.24 13.30 8.77 12.14Q9.29 10.99 10.16 10.32Q11.04 9.66 12.09 9.38Q13.14 9.10 14.16 9.10L14.16 9.10Q15.42 9.10 17.29 9.12Q19.16 9.13 21.28 9.24Q23.40 9.34 25.36 9.55L25.36 9.55L25.36 13.89L15.59 13.89Q14.51 13.89 13.96 14.47Q13.42 15.05 13.42 15.99L13.42 15.99L13.42 20.41L23.68 20.68L23.68 24.78L13.42 25.06L13.42 35ZM36.20 35.07L33.51 35.07Q31.52 35.07 30.20 34.42Q28.89 33.77 28.26 32.43Q27.63 31.08 27.63 28.95L27.63 28.95L27.63 8.29L32.81 8.29L32.81 28.17Q32.81 29.23 33.02 29.84Q33.23 30.45 33.67 30.73Q34.11 31.01 34.77 31.11L34.77 31.11L36.20 31.32L36.20 35.07ZM45.87 35.17L45.87 35.17Q43.55 35.17 41.91 34.70Q40.27 34.23 39.23 33.11Q38.20 31.99 37.73 30.13Q37.26 28.28 37.26 25.55L37.26 25.55Q37.26 22.68 37.73 20.81Q38.20 18.93 39.23 17.87Q40.27 16.80 41.93 16.36Q43.59 15.92 45.87 15.92L45.87 15.92Q48.21 15.92 49.86 16.38Q51.50 16.83 52.53 17.90Q53.56 18.97 54.04 20.84Q54.51 22.71 54.51 25.55L54.51 25.55Q54.51 28.35 54.06 30.22Q53.60 32.09 52.59 33.18Q51.57 34.27 49.91 34.72Q48.25 35.17 45.87 35.17ZM45.87 31.04L45.87 31.04Q46.81 31.04 47.46 30.87Q48.11 30.70 48.51 30.15Q48.91 29.61 49.12 28.49Q49.33 27.37 49.33 25.55L49.33 25.55Q49.33 23.70 49.12 22.59Q48.91 21.49 48.51 20.95Q48.11 20.41 47.46 20.23Q46.81 20.05 45.87 20.05L45.87 20.05Q44.95 20.05 44.31 20.23Q43.66 20.41 43.24 20.95Q42.82 21.49 42.63 22.59Q42.44 23.70 42.44 25.55L42.44 25.55Q42.44 27.37 42.63 28.49Q42.82 29.61 43.24 30.15Q43.66 30.70 44.31 30.87Q44.95 31.04 45.87 31.04ZM65.50 35L59.87 35L54.90 16.20L60.25 16.20L63.23 30.20L66.94 16.20L71.20 16.20L74.92 30.20L77.61 16.20L82.97 16.20L78.06 35L72.33 35L68.97 23.55L65.50 35ZM90.04 35L84.86 35L84.86 15.01Q84.86 13.30 85.38 12.14Q85.91 10.99 86.78 10.32Q87.66 9.66 88.71 9.38Q89.76 9.10 90.77 9.10L90.77 9.10Q92.03 9.10 93.90 9.12Q95.78 9.13 97.89 9.24Q100.01 9.34 101.97 9.55L101.97 9.55L101.97 13.89L92.21 13.89Q91.12 13.89 90.58 14.47Q90.04 15.05 90.04 15.99L90.04 15.99L90.04 20.41L100.29 20.68L100.29 24.78L90.04 25.06L90.04 35ZM111.42 35.17L111.42 35.17Q109.11 35.17 107.47 34.70Q105.82 34.23 104.79 33.11Q103.76 31.99 103.28 30.13Q102.81 28.28 102.81 25.55L102.81 25.55Q102.81 22.68 103.28 20.81Q103.76 18.93 104.79 17.87Q105.82 16.80 107.48 16.36Q109.15 15.92 111.42 15.92L111.42 15.92Q113.77 15.92 115.41 16.38Q117.06 16.83 118.09 17.90Q119.12 18.97 119.59 20.84Q120.07 22.71 120.07 25.55L120.07 25.55Q120.07 28.35 119.61 30.22Q119.16 32.09 118.14 33.18Q117.13 34.27 115.46 34.72Q113.80 35.17 111.42 35.17ZM111.42 31.04L111.42 31.04Q112.37 31.04 113.01 30.87Q113.66 30.70 114.06 30.15Q114.47 29.61 114.68 28.49Q114.89 27.37 114.89 25.55L114.89 25.55Q114.89 23.70 114.68 22.59Q114.47 21.49 114.06 20.95Q113.66 20.41 113.01 20.23Q112.37 20.05 111.42 20.05L111.42 20.05Q110.51 20.05 109.86 20.23Q109.22 20.41 108.80 20.95Q108.38 21.49 108.18 22.59Q107.99 23.70 107.99 25.55L107.99 25.55Q107.99 27.37 108.18 28.49Q108.38 29.61 108.80 30.15Q109.22 30.70 109.86 30.87Q110.51 31.04 111.42 31.04ZM127.91 35L122.73 35L122.73 16.20L126.72 16.20L127.91 19.07Q128.92 17.78 130.20 16.87Q131.48 15.96 133.23 15.96L133.23 15.96Q133.61 15.96 134.01 15.99Q134.42 16.03 134.77 16.13L134.77 16.13L134.77 21.45Q134.24 21.38 133.66 21.33Q133.09 21.28 132.56 21.28L132.56 21.28Q131.55 21.28 130.72 21.51Q129.90 21.73 129.22 22.17Q128.54 22.61 127.91 23.31L127.91 23.31L127.91 35ZM147.26 43.68L141.63 43.68Q139.84 43.68 138.46 43.16Q137.08 42.63 136.27 41.63Q135.47 40.63 135.47 39.16L135.47 39.16L135.47 38.61Q135.47 37.10 136.32 36.03Q137.18 34.97 138.55 34.41Q139.91 33.84 141.45 33.84L141.45 33.84L142.99 35.45Q142.22 35.45 141.63 35.70Q141.03 35.95 140.70 36.42Q140.37 36.89 140.37 37.59L140.37 37.59L140.37 37.98Q140.37 38.99 141.07 39.52Q141.77 40.04 143.06 40.04L143.06 40.04L146.63 40.04Q147.93 40.04 148.71 39.53Q149.50 39.02 149.50 38.01L149.50 38.01L149.50 37.45Q149.50 36.82 149.20 36.38Q148.91 35.95 148.33 35.70Q147.75 35.45 146.77 35.45L146.77 35.45L142.61 35.45Q139.46 35.45 137.93 34.28Q136.41 33.11 136.41 31.39L136.41 31.39Q136.41 29.96 137.23 29.00Q138.06 28.04 139.53 27.72L139.53 27.72Q138.41 27.13 137.74 26.27Q137.08 25.41 136.80 24.41Q136.52 23.41 136.52 22.33L136.52 22.33Q136.52 20.27 137.37 18.90Q138.23 17.53 139.96 16.87Q141.70 16.20 144.32 16.20L144.32 16.20L154.51 16.20L154.51 19.04L151.64 19.56Q151.95 19.91 152.27 20.39Q152.58 20.86 152.81 21.61Q153.04 22.36 153.04 23.48L153.04 23.48Q153.04 25.09 152.35 26.39Q151.67 27.68 150.18 28.45Q148.70 29.23 146.25 29.23L146.25 29.23L142.92 29.23Q141.98 29.23 141.38 29.50Q140.79 29.79 140.79 30.52L140.79 30.52Q140.79 31.11 141.29 31.34Q141.80 31.57 142.43 31.57L142.43 31.57L147.61 31.57Q149.78 31.57 151.29 32.13Q152.79 32.69 153.60 33.93Q154.40 35.17 154.40 37.20L154.40 37.20L154.40 37.73Q154.40 40.49 152.65 42.09Q150.90 43.68 147.26 43.68L147.26 43.68ZM143.66 25.34L143.66 25.34L145.65 25.34Q146.74 25.34 147.31 25.01Q147.89 24.67 148.12 24.10Q148.35 23.52 148.35 22.75L148.35 22.75Q148.35 21.77 148.05 21.17Q147.75 20.58 147.19 20.34Q146.63 20.09 145.79 20.09L145.79 20.09L143.83 20.09Q142.50 20.09 141.84 20.67Q141.17 21.24 141.17 22.68L141.17 22.68Q141.17 24.04 141.80 24.69Q142.43 25.34 143.66 25.34ZM164.27 35.17L164.27 35.17Q161.16 35.17 159.30 34.35Q157.45 33.53 156.62 31.43Q155.80 29.33 155.80 25.62L155.80 25.62Q155.80 21.80 156.57 19.70Q157.34 17.60 159.16 16.76Q160.98 15.92 164.09 15.92L164.09 15.92Q166.90 15.92 168.58 16.48Q170.26 17.04 171.01 18.44Q171.76 19.84 171.76 22.40L171.76 22.40Q171.76 24.29 171.01 25.39Q170.26 26.49 168.89 26.97Q167.53 27.44 165.67 27.44L165.67 27.44L160.95 27.44Q161.02 28.88 161.38 29.73Q161.75 30.59 162.75 30.96Q163.75 31.32 165.64 31.32L165.64 31.32L171.13 31.32L171.13 34.37Q169.77 34.65 168.14 34.91Q166.51 35.17 164.27 35.17ZM160.88 24.36L160.88 24.36L165.15 24.36Q166.20 24.36 166.69 23.94Q167.18 23.52 167.18 22.43L167.18 22.43Q167.18 21.42 166.86 20.81Q166.55 20.20 165.88 19.93Q165.22 19.67 164.09 19.67L164.09 19.67Q162.91 19.67 162.21 20.07Q161.50 20.47 161.19 21.49Q160.88 22.50 160.88 24.36Z"/></g>
        
      </svg>
    